<svg width="31" height="31" viewBox="0 0 31 31" fill="none" xmlns="http://www.w3.org/2000/svg">
<rect x="0.5" y="0.5" width="30" height="30" rx="2.7" fill="#5C0CB8"/>
<rect x="0.5" y="0.5" width="30" height="30" rx="2.7" stroke="#5C0CB8"/>
<g clip-path="url(#clip0_1151_99413)">
<rect width="16" height="16" transform="translate(7.5 7.5)" fill="white" fill-opacity="0.01"/>
<path fill-rule="evenodd" clip-rule="evenodd" d="M12.1449 9.14518C12.1914 9.09862 12.2466 9.06168 12.3073 9.03647C12.3681 9.01127 12.4332 8.99829 12.4989 8.99829C12.5647 8.99829 12.6298 9.01127 12.6906 9.03647C12.7513 9.06168 12.8065 9.09862 12.8529 9.14518L18.8529 15.1452C18.8995 15.1916 18.9364 15.2468 18.9617 15.3076C18.9869 15.3683 18.9998 15.4334 18.9998 15.4992C18.9998 15.565 18.9869 15.6301 18.9617 15.6908C18.9364 15.7516 18.8995 15.8067 18.8529 15.8532L12.8529 21.8532C12.7591 21.9471 12.6317 21.9998 12.4989 21.9998C12.3662 21.9998 12.2388 21.9471 12.1449 21.8532C12.0511 21.7593 11.9983 21.632 11.9983 21.4992C11.9983 21.3664 12.0511 21.2391 12.1449 21.1452L17.7919 15.4992L12.1449 9.85318C12.0984 9.80674 12.0614 9.75156 12.0362 9.69082C12.011 9.63007 11.998 9.56495 11.998 9.49918C11.998 9.43342 12.011 9.3683 12.0362 9.30755C12.0614 9.24681 12.0984 9.19163 12.1449 9.14518Z" fill="white"/>
</g>
<defs>
<clipPath id="clip0_1151_99413">
<rect width="16" height="16" fill="white" transform="translate(7.5 7.5)"/>
</clipPath>
</defs>
</svg>
