<svg width="16" height="16" viewBox="0 0 16 16" fill="none" xmlns="http://www.w3.org/2000/svg">
<g clip-path="url(#clip0_4126_24079)">
<rect width="16" height="16" fill="white" fill-opacity="0.01"/>
<mask id="path-1-outside-1_4126_24079" maskUnits="userSpaceOnUse" x="0.203125" y="3.0011" width="15" height="11" fill="black">
<rect fill="white" x="0.203125" y="3.0011" width="15" height="11"/>
<path d="M7.24848 11.1411L2.45248 5.6591C1.88648 5.0141 2.34648 4.0011 3.20548 4.0011H12.7975C12.9897 4.00093 13.1779 4.05619 13.3396 4.16024C13.5012 4.26429 13.6295 4.41274 13.7089 4.58779C13.7884 4.76285 13.8157 4.9571 13.7876 5.14728C13.7595 5.33746 13.6772 5.5155 13.5505 5.6601L8.75448 11.1401C8.66061 11.2475 8.54486 11.3336 8.41499 11.3926C8.28511 11.4516 8.14412 11.4821 8.00148 11.4821C7.85883 11.4821 7.71784 11.4516 7.58797 11.3926C7.45809 11.3336 7.34234 11.2475 7.24848 11.1401V11.1411Z"/>
</mask>
<path d="M7.24848 11.1411L2.45248 5.6591C1.88648 5.0141 2.34648 4.0011 3.20548 4.0011H12.7975C12.9897 4.00093 13.1779 4.05619 13.3396 4.16024C13.5012 4.26429 13.6295 4.41274 13.7089 4.58779C13.7884 4.76285 13.8157 4.9571 13.7876 5.14728C13.7595 5.33746 13.6772 5.5155 13.5505 5.6601L8.75448 11.1401C8.66061 11.2475 8.54486 11.3336 8.41499 11.3926C8.28511 11.4516 8.14412 11.4821 8.00148 11.4821C7.85883 11.4821 7.71784 11.4516 7.58797 11.3926C7.45809 11.3336 7.34234 11.2475 7.24848 11.1401V11.1411Z" fill="#5C0CB8"/>
<path d="M7.24848 11.1411L6.49585 11.7995L8.24848 13.8029V11.1411H7.24848ZM2.45248 5.6591L3.2051 5.00065L3.20411 4.99952L2.45248 5.6591ZM12.7975 4.0011V5.0011L12.7983 5.0011L12.7975 4.0011ZM13.5505 5.6601L12.7983 5.0011L12.798 5.00152L13.5505 5.6601ZM8.75448 11.1401L8.00197 10.4815L8.00148 10.4821L8.75448 11.1401ZM7.24848 11.1401L8.00148 10.4821L6.24848 8.47605V11.1401H7.24848ZM8.0011 10.4827L3.2051 5.00065L1.69985 6.31755L6.49585 11.7995L8.0011 10.4827ZM3.20411 4.99952C3.20128 4.99629 3.20001 4.99438 3.1997 4.9939C3.1994 4.99342 3.19971 4.99384 3.20027 4.99511C3.20156 4.998 3.20254 5.00155 3.20294 5.00475C3.2033 5.00763 3.203 5.00869 3.20315 5.00777C3.20332 5.00672 3.20385 5.00449 3.20511 5.00172C3.20637 4.99894 3.20773 4.997 3.20852 4.99605C3.20923 4.9952 3.2088 4.99594 3.20666 4.99739C3.20426 4.99902 3.20127 5.00046 3.19861 5.00128C3.19746 5.00164 3.19712 5.00164 3.19786 5.00153C3.19859 5.00142 3.20103 5.0011 3.20548 5.0011V3.0011C1.48994 3.0011 0.565544 5.02492 1.70084 6.31868L3.20411 4.99952ZM3.20548 5.0011H12.7975V3.0011H3.20548V5.0011ZM12.7983 5.0011L12.7983 5.0011L13.8808 3.31938C13.5575 3.11127 13.1811 3.00077 12.7966 3.0011L12.7983 5.0011ZM12.7983 5.0011H12.7983L14.6195 4.17449C14.4606 3.82437 14.2041 3.52749 13.8808 3.31938L12.7983 5.0011ZM12.7983 5.0011V5.0011L14.7769 5.29345C14.8331 4.91309 14.7784 4.5246 14.6195 4.17449L12.7983 5.0011ZM12.7983 5.0011V5.0011L14.3026 6.3191C14.556 6.02991 14.7206 5.67381 14.7769 5.29345L12.7983 5.0011ZM12.798 5.00152L8.00197 10.4815L9.50698 11.7987L14.303 6.31868L12.798 5.00152ZM8.00148 10.4821L8.82849 12.3031C9.08825 12.1851 9.31975 12.0129 9.50748 11.7981L8.00148 10.4821ZM8.00148 10.4821L8.00148 10.4821V12.4821C8.28676 12.4821 8.56874 12.421 8.82849 12.3031L8.00148 10.4821ZM8.00148 10.4821V10.4821L7.17446 12.3031C7.43421 12.421 7.71619 12.4821 8.00148 12.4821V10.4821ZM8.00148 10.4821L6.49548 11.7981C6.6832 12.0129 6.91471 12.1851 7.17446 12.3031L8.00148 10.4821ZM6.24848 11.1401V11.1411H8.24848V11.1401H6.24848Z" fill="#5C0CB8" mask="url(#path-1-outside-1_4126_24079)"/>
</g>
<defs>
<clipPath id="clip0_4126_24079">
<rect width="16" height="16" fill="white"/>
</clipPath>
</defs>
</svg>
