<svg width="17" height="17" viewBox="0 0 17 17" fill="none" xmlns="http://www.w3.org/2000/svg">
<g clip-path="url(#clip0_4170_18901)">
<rect width="16" height="16" transform="translate(0.5 0.5)" fill="white" fill-opacity="0.01"/>
<path fill-rule="evenodd" clip-rule="evenodd" d="M5.14494 2.14518C5.19139 2.09862 5.24656 2.06168 5.30731 2.03647C5.36805 2.01127 5.43317 1.99829 5.49894 1.99829C5.56471 1.99829 5.62983 2.01127 5.69057 2.03647C5.75132 2.06168 5.80649 2.09862 5.85294 2.14518L11.8529 8.14518C11.8995 8.19163 11.9364 8.24681 11.9617 8.30755C11.9869 8.3683 11.9998 8.43342 11.9998 8.49918C11.9998 8.56495 11.9869 8.63007 11.9617 8.69082C11.9364 8.75156 11.8995 8.80674 11.8529 8.85318L5.85294 14.8532C5.75905 14.9471 5.63172 14.9998 5.49894 14.9998C5.36616 14.9998 5.23883 14.9471 5.14494 14.8532C5.05105 14.7593 4.99831 14.632 4.99831 14.4992C4.99831 14.3664 5.05105 14.2391 5.14494 14.1452L10.7919 8.49918L5.14494 2.85318C5.09838 2.80674 5.06143 2.75156 5.03623 2.69082C5.01102 2.63007 4.99805 2.56495 4.99805 2.49918C4.99805 2.43342 5.01102 2.3683 5.03623 2.30755C5.06143 2.24681 5.09838 2.19163 5.14494 2.14518Z" fill="white"/>
</g>
<defs>
<clipPath id="clip0_4170_18901">
<rect width="16" height="16" fill="white" transform="translate(0.5 0.5)"/>
</clipPath>
</defs>
</svg>
