<svg width="16" height="16" viewBox="0 0 16 16" fill="none" xmlns="http://www.w3.org/2000/svg">
<path fill-rule="evenodd" clip-rule="evenodd" d="M4.64689 1.64601C4.69334 1.59945 4.74851 1.5625 4.80926 1.5373C4.87001 1.51209 4.93513 1.49911 5.00089 1.49911C5.06666 1.49911 5.13178 1.51209 5.19253 1.5373C5.25327 1.5625 5.30845 1.59945 5.35489 1.64601L11.3549 7.64601C11.4015 7.69245 11.4384 7.74763 11.4636 7.80838C11.4888 7.86912 11.5018 7.93424 11.5018 8.00001C11.5018 8.06578 11.4888 8.1309 11.4636 8.19164C11.4384 8.25239 11.4015 8.30756 11.3549 8.35401L5.35489 14.354C5.26101 14.4479 5.13367 14.5006 5.00089 14.5006C4.86812 14.5006 4.74078 14.4479 4.64689 14.354C4.55301 14.2601 4.50026 14.1328 4.50026 14C4.50026 13.8672 4.55301 13.7399 4.64689 13.646L10.2939 8.00001L4.64689 2.35401C4.60033 2.30756 4.56339 2.25239 4.53818 2.19164C4.51297 2.1309 4.5 2.06578 4.5 2.00001C4.5 1.93424 4.51297 1.86912 4.53818 1.80838C4.56339 1.74763 4.60033 1.69245 4.64689 1.64601Z" fill="#5C0CB8"/>
</svg>
