<svg width="20" height="20" viewBox="0 0 20 20" fill="none" xmlns="http://www.w3.org/2000/svg">
<g clip-path="url(#clip0_4126_19105)">
<path d="M14.6767 12.93C15.887 11.2784 16.4291 9.23062 16.1945 7.19644C15.9599 5.16226 14.9659 3.29168 13.4114 1.95892C11.8568 0.626155 9.85635 -0.070492 7.81021 0.00834944C5.76407 0.0871909 3.82315 0.935706 2.37575 2.38414C0.928358 3.83257 0.0812323 5.7741 0.00385504 7.8203C-0.0735222 9.86649 0.624556 11.8665 1.95843 13.4201C3.2923 14.9737 5.1636 15.9663 7.19794 16.1995C9.23228 16.4326 11.2796 15.8891 12.9304 14.6775H12.9292C12.9667 14.7275 13.0067 14.775 13.0517 14.8213L17.8642 19.6338C18.0986 19.8683 18.4165 20.0001 18.7481 20.0003C19.0797 20.0004 19.3977 19.8688 19.6323 19.6344C19.8668 19.4 19.9987 19.082 19.9988 18.7504C19.9989 18.4189 19.8673 18.1008 19.6329 17.8663L14.8204 13.0538C14.7757 13.0085 14.7277 12.9667 14.6767 12.9288V12.93ZM14.9992 8.125C14.9992 9.02784 14.8213 9.92184 14.4758 10.756C14.1303 11.5901 13.6239 12.348 12.9855 12.9864C12.3471 13.6248 11.5892 14.1312 10.7551 14.4767C9.921 14.8222 9.02701 15 8.12417 15C7.22133 15 6.32733 14.8222 5.49322 14.4767C4.65911 14.1312 3.90121 13.6248 3.26281 12.9864C2.62441 12.348 2.118 11.5901 1.7725 10.756C1.427 9.92184 1.24917 9.02784 1.24917 8.125C1.24917 6.30164 1.9735 4.55296 3.26281 3.26364C4.55212 1.97433 6.30081 1.25 8.12417 1.25C9.94753 1.25 11.6962 1.97433 12.9855 3.26364C14.2748 4.55296 14.9992 6.30164 14.9992 8.125Z" fill="white"/>
</g>
<defs>
<clipPath id="clip0_4126_19105">
<rect width="20" height="20" fill="white"/>
</clipPath>
</defs>
</svg>
