<svg width="24" height="24" viewBox="0 0 24 24" fill="none" xmlns="http://www.w3.org/2000/svg">
<path d="M23.9991 12.0735C23.9991 5.40454 18.6261 -0.00146484 11.9991 -0.00146484C5.36909 3.51563e-05 -0.00390625 5.40454 -0.00390625 12.075C-0.00390625 18.1005 4.38509 23.0955 10.1211 24.0015V15.564H7.07609V12.075H10.1241V9.41253C10.1241 6.38704 11.9166 4.71603 14.6571 4.71603C15.9711 4.71603 17.3436 4.95154 17.3436 4.95154V7.92154H15.8301C14.3406 7.92154 13.8756 8.85303 13.8756 9.80853V12.0735H17.2026L16.6716 15.5625H13.8741V24C19.6101 23.094 23.9991 18.099 23.9991 12.0735Z" fill="#5C0CB8"/>
</svg>
